<mxfile host="app.diagrams.net" modified="2023-07-10T07:31:39.843Z" agent="Mozilla/5.0 (Macintosh; Intel Mac OS X 10_15_7) AppleWebKit/537.36 (KHTML, like Gecko) Chrome/114.0.0.0 Safari/537.36" etag="PPrArTKtUGMHhng5U4vg" version="21.6.1" type="device">
  <diagram name="Page-1" id="sGoT2AnhV0e2u0fV1qel">
    <mxGraphModel dx="1026" dy="692" grid="1" gridSize="10" guides="1" tooltips="1" connect="1" arrows="1" fold="1" page="1" pageScale="1" pageWidth="827" pageHeight="1169" math="0" shadow="0">
      <root>
        <mxCell id="0" />
        <mxCell id="1" parent="0" />
        <mxCell id="x6WUaeN7GkY3csXevEK0-1" value="Material App Widget&lt;br&gt;" style="rounded=1;whiteSpace=wrap;html=1;" vertex="1" parent="1">
          <mxGeometry x="360" y="100" width="120" height="70" as="geometry" />
        </mxCell>
        <mxCell id="x6WUaeN7GkY3csXevEK0-2" value="Scaffold&lt;br&gt;Widget&lt;br&gt;" style="rounded=1;whiteSpace=wrap;html=1;" vertex="1" parent="1">
          <mxGeometry x="360" y="240" width="120" height="60" as="geometry" />
        </mxCell>
        <mxCell id="x6WUaeN7GkY3csXevEK0-4" value="" style="endArrow=classic;html=1;rounded=0;exitX=0.5;exitY=1;exitDx=0;exitDy=0;entryX=0.5;entryY=0;entryDx=0;entryDy=0;" edge="1" parent="1" source="x6WUaeN7GkY3csXevEK0-1" target="x6WUaeN7GkY3csXevEK0-2">
          <mxGeometry width="50" height="50" relative="1" as="geometry">
            <mxPoint x="390" y="380" as="sourcePoint" />
            <mxPoint x="440" y="330" as="targetPoint" />
          </mxGeometry>
        </mxCell>
        <mxCell id="x6WUaeN7GkY3csXevEK0-5" value="backgroundColor" style="rounded=1;whiteSpace=wrap;html=1;" vertex="1" parent="1">
          <mxGeometry x="100" y="410" width="120" height="60" as="geometry" />
        </mxCell>
        <mxCell id="x6WUaeN7GkY3csXevEK0-7" value="AppBar Widget" style="rounded=1;whiteSpace=wrap;html=1;" vertex="1" parent="1">
          <mxGeometry x="360" y="410" width="120" height="60" as="geometry" />
        </mxCell>
        <mxCell id="x6WUaeN7GkY3csXevEK0-8" value="body" style="rounded=1;whiteSpace=wrap;html=1;" vertex="1" parent="1">
          <mxGeometry x="630" y="410" width="120" height="60" as="geometry" />
        </mxCell>
        <mxCell id="x6WUaeN7GkY3csXevEK0-9" value="" style="endArrow=classic;html=1;rounded=0;exitX=-0.042;exitY=0.65;exitDx=0;exitDy=0;entryX=0.433;entryY=-0.017;entryDx=0;entryDy=0;entryPerimeter=0;exitPerimeter=0;" edge="1" parent="1" source="x6WUaeN7GkY3csXevEK0-2" target="x6WUaeN7GkY3csXevEK0-5">
          <mxGeometry width="50" height="50" relative="1" as="geometry">
            <mxPoint x="390" y="380" as="sourcePoint" />
            <mxPoint x="440" y="330" as="targetPoint" />
            <Array as="points">
              <mxPoint x="150" y="280" />
            </Array>
          </mxGeometry>
        </mxCell>
        <mxCell id="x6WUaeN7GkY3csXevEK0-10" value="" style="endArrow=classic;html=1;rounded=0;exitX=0.433;exitY=0.983;exitDx=0;exitDy=0;exitPerimeter=0;entryX=0.45;entryY=0.033;entryDx=0;entryDy=0;entryPerimeter=0;" edge="1" parent="1" source="x6WUaeN7GkY3csXevEK0-2" target="x6WUaeN7GkY3csXevEK0-7">
          <mxGeometry width="50" height="50" relative="1" as="geometry">
            <mxPoint x="390" y="380" as="sourcePoint" />
            <mxPoint x="440" y="330" as="targetPoint" />
          </mxGeometry>
        </mxCell>
        <mxCell id="x6WUaeN7GkY3csXevEK0-11" value="" style="endArrow=classic;html=1;rounded=0;exitX=1;exitY=0.75;exitDx=0;exitDy=0;entryX=0.558;entryY=-0.067;entryDx=0;entryDy=0;entryPerimeter=0;" edge="1" parent="1" source="x6WUaeN7GkY3csXevEK0-2" target="x6WUaeN7GkY3csXevEK0-8">
          <mxGeometry width="50" height="50" relative="1" as="geometry">
            <mxPoint x="390" y="380" as="sourcePoint" />
            <mxPoint x="440" y="330" as="targetPoint" />
            <Array as="points">
              <mxPoint x="697" y="280" />
            </Array>
          </mxGeometry>
        </mxCell>
        <mxCell id="x6WUaeN7GkY3csXevEK0-12" value="backgroundColor" style="rounded=1;whiteSpace=wrap;html=1;" vertex="1" parent="1">
          <mxGeometry x="440" y="585" width="120" height="60" as="geometry" />
        </mxCell>
        <mxCell id="x6WUaeN7GkY3csXevEK0-13" value="title" style="rounded=1;whiteSpace=wrap;html=1;" vertex="1" parent="1">
          <mxGeometry x="240" y="585" width="120" height="60" as="geometry" />
        </mxCell>
        <mxCell id="x6WUaeN7GkY3csXevEK0-14" value="" style="endArrow=classic;html=1;rounded=0;exitX=0;exitY=0.5;exitDx=0;exitDy=0;" edge="1" parent="1" source="x6WUaeN7GkY3csXevEK0-7">
          <mxGeometry width="50" height="50" relative="1" as="geometry">
            <mxPoint x="390" y="540" as="sourcePoint" />
            <mxPoint x="280" y="580" as="targetPoint" />
            <Array as="points">
              <mxPoint x="280" y="440" />
            </Array>
          </mxGeometry>
        </mxCell>
        <mxCell id="x6WUaeN7GkY3csXevEK0-15" value="" style="endArrow=classic;html=1;rounded=0;exitX=1;exitY=0.5;exitDx=0;exitDy=0;" edge="1" parent="1" source="x6WUaeN7GkY3csXevEK0-7">
          <mxGeometry width="50" height="50" relative="1" as="geometry">
            <mxPoint x="390" y="540" as="sourcePoint" />
            <mxPoint x="520" y="580" as="targetPoint" />
            <Array as="points">
              <mxPoint x="520" y="440" />
            </Array>
          </mxGeometry>
        </mxCell>
        <mxCell id="x6WUaeN7GkY3csXevEK0-16" value="Image" style="rounded=1;whiteSpace=wrap;html=1;" vertex="1" parent="1">
          <mxGeometry x="640" y="585" width="120" height="60" as="geometry" />
        </mxCell>
        <mxCell id="x6WUaeN7GkY3csXevEK0-17" value="NetworkImage" style="rounded=1;whiteSpace=wrap;html=1;" vertex="1" parent="1">
          <mxGeometry x="650" y="770" width="120" height="60" as="geometry" />
        </mxCell>
        <mxCell id="x6WUaeN7GkY3csXevEK0-18" value="" style="endArrow=classic;html=1;rounded=0;exitX=0.5;exitY=1;exitDx=0;exitDy=0;entryX=0.425;entryY=0;entryDx=0;entryDy=0;entryPerimeter=0;" edge="1" parent="1" source="x6WUaeN7GkY3csXevEK0-8" target="x6WUaeN7GkY3csXevEK0-16">
          <mxGeometry width="50" height="50" relative="1" as="geometry">
            <mxPoint x="660" y="560" as="sourcePoint" />
            <mxPoint x="710" y="510" as="targetPoint" />
          </mxGeometry>
        </mxCell>
        <mxCell id="x6WUaeN7GkY3csXevEK0-19" value="" style="endArrow=classic;html=1;rounded=0;exitX=0.45;exitY=1;exitDx=0;exitDy=0;exitPerimeter=0;entryX=0.383;entryY=-0.083;entryDx=0;entryDy=0;entryPerimeter=0;" edge="1" parent="1" source="x6WUaeN7GkY3csXevEK0-16" target="x6WUaeN7GkY3csXevEK0-17">
          <mxGeometry width="50" height="50" relative="1" as="geometry">
            <mxPoint x="680" y="720" as="sourcePoint" />
            <mxPoint x="730" y="670" as="targetPoint" />
          </mxGeometry>
        </mxCell>
      </root>
    </mxGraphModel>
  </diagram>
</mxfile>
